<svg width="17" height="17" viewBox="0 0 17 17" fill="none" xmlns="http://www.w3.org/2000/svg">
<path d="M14.6667 8.25C14.6667 4.70618 11.7938 1.83333 8.25 1.83333C7.04 1.83333 5.90865 2.16777 4.94269 2.75H5.5C6.00626 2.75 6.41667 3.16041 6.41667 3.66667C6.41667 4.17292 6.00626 4.58333 5.5 4.58333H2.75C2.24374 4.58333 1.83333 4.17292 1.83333 3.66667C1.83333 2.75 1.83333 1.83333 1.83333 0.916667C1.83333 0.41041 2.24374 0 2.75 0C3.25626 0 3.66667 0.41041 3.66667 0.916667V1.38944C4.97736 0.512233 6.55417 0 8.25 0C12.8064 0 16.5 3.69365 16.5 8.25C16.5 12.8064 12.8064 16.5 8.25 16.5C3.69365 16.5 0 12.8064 0 8.25C0 7.90158 0.0216517 7.55773 0.0637817 7.21994C0.126427 6.71752 0.584457 6.36107 1.08683 6.42373C1.5892 6.48633 1.94567 6.94439 1.88303 7.44673C1.85026 7.70953 1.83333 7.97757 1.83333 8.25C1.83333 11.7938 4.70618 14.6667 8.25 14.6667C11.7938 14.6667 14.6667 11.7938 14.6667 8.25Z" fill="#F0E7D5"/>
</svg>
