<svg width="1280" height="364" viewBox="0 0 1280 364" fill="none" xmlns="http://www.w3.org/2000/svg">
<path fill-rule="evenodd" clip-rule="evenodd" d="M0 0L42.6667 12.1333C85.3333 24.2667 170.667 48.5333 256 78.8667C341.333 109.2 426.667 145.6 512 151.667C597.333 157.733 682.667 133.467 768 151.667C853.333 169.867 938.667 230.533 1024 248.733C1109.33 266.933 1194.67 242.667 1237.33 230.533L1280 218.4V364H1237.33C1194.67 364 1109.33 364 1024 364C938.667 364 853.333 364 768 364C682.667 364 597.333 364 512 364C426.667 364 341.333 364 256 364C170.667 364 85.3333 364 42.6667 364H0V0Z" fill="#1E243B"/>
</svg>
